/* XPM */
static char * continue_xpm[] = {
"20 18 8 1",
" 	c None",
".	c #000000",
"+	c #C0FFFF",
"@	c #00FFFF",
"#	c #FFFFFF",
"$	c #00C0C0",
"%	c #008080",
"&	c #004040",
"                    ",
"                    ",
"        ..          ",
"        .+.         ",
"        .@#.        ",
"        .$@#.       ",
"   ......$$@#.      ",
"   .@+++@$$$@#.     ",
"   .%$$$$$$$$@#.    ",
"   .%$$$$$$$$$@+.   ",
"   .%$$$$$$$$%&.    ",
"   .%%%%%$$$%&.     ",
"   ......$$%&.      ",
"        .$%&.       ",
"        .%&.        ",
"        .&.         ",
"        ..          ",
"                    "};
