/* XPM */
static char * copy_xpm[] = {
"20 18 7 1",
" 	c None",
".	c #000000",
"+	c #FFFFFF",
"@	c #FFFFC0",
"#	c #303030",
"$	c #A0A0A0",
"%	c #DCDCDC",
"                    ",
"  ......            ",
"  .++++..           ",
"  .++++.@.          ",
"  .+##+.+@.         ",
"  .++++.......      ",
"  .+##++$$$.+..     ",
"  .+++++@+@.+.%.    ",
"  .+###+##@.+.+%.   ",
"  .+++@+@@@.+.....  ",
"  .+##+###@.++$$$.  ",
"  .+@+@@@@@.++++%.  ",
"  .........##+##+.  ",
"        .++++++++.  ",
"        .+##+###+.  ",
"        .++++++++.  ",
"        ..........  ",
"                    "};
