/* XPM */
static char * edit_xpm[] = {
"20 18 9 1",
" 	c None",
".	c #000000",
"+	c #808080",
"@	c #585858",
"#	c #DCDCDC",
"$	c #A0A0A0",
"%	c #C3C3C3",
"&	c #FFFFFF",
"*	c #303030",
"                    ",
"     ......         ",
"     .+@##$..       ",
"      .%@@#%$.      ",
"  ...  ..%@#$.      ",
"  .&$..  .@##$.     ",
"  .&###.@@###$.     ",
"  .@&&########$..   ",
"  *&@@&&#######$$.  ",
"  .%#&@@@@$&&####$  ",
"   ..%#%%$@@@&&###  ",
"     ...$%%%$@@&&#  ",
"        ....##$@@&  ",
"            ..##$@  ",
"              ..##  ",
"                ..  ",
"                    ",
"                    "};
