/* XPM */
static char * help_xpm[] = {
"20 18 128 2",
"  	c None",
". 	c #344E61",
"+ 	c #43627A",
"@ 	c #5A819F",
"# 	c #6C98B7",
"$ 	c #476274",
"% 	c #515151",
"& 	c #3F505D",
"* 	c #476C89",
"= 	c #537EA1",
"- 	c #5F91BA",
"; 	c #6395C0",
"> 	c #79A1C4",
", 	c #93B0CA",
"' 	c #7CA5C7",
") 	c #81AFCE",
"! 	c #567183",
"~ 	c #4E4E4E",
"{ 	c #636465",
"] 	c #738593",
"^ 	c #6D7176",
"/ 	c #648AA9",
"( 	c #6296C0",
"_ 	c #7AA0C3",
": 	c #D2D5D8",
"< 	c #DDDDDD",
"[ 	c #DADCDF",
"} 	c #BCCAD8",
"| 	c #72A0C7",
"1 	c #92BED9",
"2 	c #698798",
"3 	c #747474",
"4 	c #3B3B3B",
"5 	c #8B8D8D",
"6 	c #8296A4",
"7 	c #72777E",
"8 	c #6C8CA6",
"9 	c #6D9EC4",
"0 	c #85A9C9",
"a 	c #8BAECD",
"b 	c #7EAACC",
"c 	c #83B0D0",
"d 	c #8DBAD6",
"e 	c #98C3DC",
"f 	c #9FC8DF",
"g 	c #7B99A8",
"h 	c #5F5F5F",
"i 	c #888989",
"j 	c #A5ABAE",
"k 	c #909191",
"l 	c #8596A2",
"m 	c #73777D",
"n 	c #6F8BA1",
"o 	c #7DACCD",
"p 	c #84B3D1",
"q 	c #8BB8D5",
"r 	c #91BDD8",
"s 	c #98C3DB",
"t 	c #9EC8DF",
"u 	c #A5CDE2",
"v 	c #ACD3E6",
"w 	c #8DACB9",
"x 	c #595959",
"y 	c #898989",
"z 	c #ABB1B4",
"A 	c #989999",
"B 	c #92A3AC",
"C 	c #6C7178",
"D 	c #758A9A",
"E 	c #88B3CF",
"F 	c #A5CEE2",
"G 	c #ABD3E5",
"H 	c #B2D8E9",
"I 	c #B4DAEA",
"J 	c #9BBCC9",
"K 	c #3A464B",
"L 	c #959696",
"M 	c #9CA3A6",
"N 	c #999999",
"O 	c #9CABB3",
"P 	c #788088",
"Q 	c #7A8B97",
"R 	c #92BBD4",
"S 	c #AAD2E5",
"T 	c #A8CFE2",
"U 	c #9BC0D7",
"V 	c #85A6C3",
"W 	c #708BAB",
"X 	c #23334C",
"Y 	c #484848",
"Z 	c #858585",
"` 	c #A3A9AC",
" .	c #9E9F9F",
"..	c #A0B0B7",
"+.	c #6F89A0",
"@.	c #83A6C1",
"#.	c #8EB9D6",
"$.	c #83ABCB",
"%.	c #8CAAC6",
"&.	c #9AAEC4",
"*.	c #B0B9C8",
"=.	c #CACED4",
"-.	c #D4D5D5",
";.	c #495056",
">.	c #353535",
",.	c #97A0A4",
"'.	c #D8E0E4",
").	c #CADAE4",
"!.	c #BFD0DD",
"~.	c #CFD7DF",
"{.	c #E5E5E5",
"].	c #E1E3E4",
"^.	c #CCD3DB",
"/.	c #A7B6C9",
"(.	c #788AA4",
"_.	c #455877",
":.	c #192A46",
"<.	c #6D6E6F",
"[.	c #95A4AC",
"}.	c #D5DEE4",
"|.	c #CEDAE3",
"1.	c #A7BBCE",
"2.	c #7A94AE",
"3.	c #4A6380",
"4.	c #2A3F5A",
"5.	c #111F33",
"6.	c #4F6471",
"7.	c #3B5265",
"                                        ",
"                                        ",
"                                        ",
"                                        ",
"                . + @ # $               ",
"      % & * = - ; > , ' ) !             ",
"  ~ { ] ^ / ( _ : < [ } | 1 2           ",
"  3 4 5 6 7 8 9 0 a b c d e f g         ",
"  h i j k l m n o p q r s t u v w       ",
"    x y z A B C D E r s t F G H I J K   ",
"      % L M N O P Q R t u S T U V W X   ",
"        Y Z `  ...+.@.#.$.%.&.*.=.-.;.  ",
"          >.y ,.'.).!.~.{.].^./.(._.:.  ",
"            >.<.[.}.|.1.2.3.4.5.        ",
"                  6.7.                  ",
"                                        ",
"                                        ",
"                                        "};
