/* XPM */
static char * new_xpm[] = {
"20 18 14 1",
" 	c None",
".	c #000000",
"+	c #303030",
"@	c #DCDCDC",
"#	c #C3C3C3",
"$	c #FFFFFF",
"%	c #585858",
"&	c #FFFF00",
"*	c #A0A0A0",
"=	c #FFFFC0",
"-	c #C0C000",
";	c #C1C10A",
">	c #FFFF85",
",	c #400000",
"                    ",
"      ..+...+..     ",
"      +@@@@@#+#.    ",
"      .@$$$$$%$@.   ",
"      .@$$$$$%@$#.  ",
"      .@$$$$$%%%+.  ",
"     +&@$$$$$$@#*.  ",
"  +& +&@+&$$$$=$@.  ",
"   +&-&-&$$$$$$$$.  ",
"    ;=>=-++$=$=$=.  ",
"  &&&>$>&&&$$$$=$.  ",
"  + -=>=-$=$=$=$=.  ",
"   +&-&-&$$$$=$=$.  ",
"  +& +&@+&=$=$=$=.  ",
"     +&@$$$=$=$==.  ",
"      .@=$=$=$===.  ",
"      ......,..+..  ",
"                    "};
