/* XPM */
static char * open_xpm[] = {
"20 18 5 1",
" 	c None",
".	c #000000",
"+	c #FFFF00",
"@	c #FFFFC0",
"#	c #C0C000",
"                    ",
"        ....        ",
"       .. .... .    ",
"      .     ....    ",
"             ...    ",
"            ....    ",
"   ....             ",
"  .+@@+.......      ",
"  .@@@@+++++++.     ",
"  .@@.............  ",
"  .@+.@@@@@@@@@@@.  ",
"  .@.@++++#+#+##.   ",
"  .+.@+++#+#+###.   ",
"  ..@+++#+#+###.    ",
"  ..@++#+#+####.    ",
"  .@++#+#+####.     ",
"  .............     ",
"                    "};
