/* XPM */
static char * savePage_xpm[] = {
"20 18 10 1",
" 	c None",
".	c #000000",
"+	c #FFFFFF",
"@	c #FFFFC0",
"#	c #303030",
"$	c #7B7B7B",
"%	c #69A5A5",
"&	c #ABBBB6",
"*	c #A0A0A0",
"=	c #BCBCBC",
"                    ",
"  ......            ",
"  .++++..           ",
"  .++++.@.########  ",
"  .+##+.+@.+++++#$# ",
"  .++++.....%%&+#$# ",
"  .+##++***.++++#$# ",
"  .+++++@+@.%%&+#$# ",
"  .+###+##@.++++#$# ",
"  .+++@+@@@.####$$# ",
"  .+##+###@.$$$$$$# ",
"  .+@+@@@@@.####$$# ",
"  .........#=#$$#$# ",
"     #$$#=##=#$$#$# ",
"     #$$#=##=#$$#$# ",
"     #$$#====#$$#$# ",
"      ############  ",
"                    "};
