/* XPM */
static char * saveAs_xpm[] = {
"20 18 15 1",
" 	c None",
".	c #FDD7A6",
"+	c #5B3E26",
"@	c #1B1B1B",
"#	c #3F3F3F",
"$	c #404040",
"%	c #303030",
"&	c #E17504",
"*	c #F89A30",
"=	c #FFFFFF",
"-	c #7B7B7B",
";	c #ABBBB6",
">	c #69A5A5",
",	c #6A5344",
"'	c #BCBCBC",
"                    ",
"                    ",
"  . +@#$$$$%%%%%    ",
"  &***.=======%-%   ",
"   &&**.;>>>;=%-%   ",
"   %%%&&*.====%-%   ",
"   %-%%&&&,>;=%-%   ",
"   %-%%=======%-%   ",
"   %--%%%%%%%%--%   ",
"   %------------%   ",
"   %---%%%%%%%--%   ",
"   %--%''''%--%-%   ",
"   %--%'%%'%--%-%   ",
"   %--%'%%'%--%-%   ",
"   %--%''''%--%-%   ",
"    %%%%%%%%%%%%    ",
"                    ",
"                    "};
