/* XPM */
static char * save_xpm[] = {
"20 18 7 1",
" 	c None",
".	c #303030",
"+	c #7B7B7B",
"@	c #FFFFFF",
"#	c #ABBBB6",
"$	c #69A5A5",
"%	c #BCBCBC",
"                    ",
"                    ",
"    ............    ",
"   .+.@@@@@@@@.+.   ",
"   .+.@#$$$$#@.+.   ",
"   .+.@@@@@@@@.+.   ",
"   .+.@#$$$$#@.+.   ",
"   .+..@@@@@@@.+.   ",
"   .++........++.   ",
"   .++++++++++++.   ",
"   .+++.......++.   ",
"   .++.%%%%.++.+.   ",
"   .++.%..%.++.+.   ",
"   .++.%..%.++.+.   ",
"   .++.%%%%.++.+.   ",
"    ............    ",
"                    ",
"                    "};
