/* XPM */
static char * warn_xpm[] = {
"16 20 3 1",
" 	c None",
".	c #000000",
"+	c #FFFF00",
"................",
".++++++++++++++.",
".++++++..++++++.",
" .+++++..+++++. ",
" .+++++..+++++. ",
" .+++++..+++++. ",
"  .++++..++++.  ",
"  .++++..++++.  ",
"  .++++..++++.  ",
"   .+++..+++.   ",
"   .++++++++.   ",
"    .++++++.    ",
"    .++..++.    ",
"    .++..++.    ",
"     .++++.     ",
"     .++++.     ",
"     .++++.     ",
"      .++.      ",
"      .++.      ",
"       ..       "};
